<mxfile host="app.diagrams.net" agent="Mozilla/5.0 (X11; Linux x86_64) AppleWebKit/537.36 (KHTML, like Gecko) Chrome/131.0.0.0 Safari/537.36" version="25.0.3">
  <diagram name="Page-1" id="vI1ZFkF_VZ9kpP50E2va">
    <mxGraphModel dx="1364" dy="799" grid="1" gridSize="10" guides="1" tooltips="1" connect="1" arrows="1" fold="1" page="1" pageScale="1" pageWidth="850" pageHeight="1100" math="0" shadow="0">
      <root>
        <mxCell id="0" />
        <mxCell id="1" parent="0" />
        <mxCell id="fPaXjcl1kV30KWy46vOE-5" style="edgeStyle=orthogonalEdgeStyle;rounded=0;orthogonalLoop=1;jettySize=auto;html=1;entryX=0;entryY=0.5;entryDx=0;entryDy=0;" parent="1" source="fPaXjcl1kV30KWy46vOE-1" target="fPaXjcl1kV30KWy46vOE-4" edge="1">
          <mxGeometry relative="1" as="geometry" />
        </mxCell>
        <mxCell id="fPaXjcl1kV30KWy46vOE-1" value="proteome fetcher" style="rounded=1;whiteSpace=wrap;html=1;absoluteArcSize=1;arcSize=14;strokeWidth=2;fillColor=#dae8fc;strokeColor=#6c8ebf;" parent="1" vertex="1">
          <mxGeometry x="20" y="420" width="100" height="100" as="geometry" />
        </mxCell>
        <mxCell id="fPaXjcl1kV30KWy46vOE-3" style="edgeStyle=orthogonalEdgeStyle;rounded=0;orthogonalLoop=1;jettySize=auto;html=1;entryX=0.5;entryY=0;entryDx=0;entryDy=0;" parent="1" source="fPaXjcl1kV30KWy46vOE-2" target="fPaXjcl1kV30KWy46vOE-1" edge="1">
          <mxGeometry relative="1" as="geometry" />
        </mxCell>
        <mxCell id="fPaXjcl1kV30KWy46vOE-2" value="Proteome files" style="strokeWidth=2;html=1;shape=mxgraph.flowchart.multi-document;whiteSpace=wrap;fillColor=#fff2cc;strokeColor=#d6b656;" parent="1" vertex="1">
          <mxGeometry x="26" y="330" width="88" height="60" as="geometry" />
        </mxCell>
        <mxCell id="fPaXjcl1kV30KWy46vOE-4" value="Proteome splitter, split proteome based on ids into separate files for&amp;nbsp;TrEMBL and swiss-prot" style="rounded=1;whiteSpace=wrap;html=1;absoluteArcSize=1;arcSize=14;strokeWidth=2;fillColor=#dae8fc;strokeColor=#6c8ebf;" parent="1" vertex="1">
          <mxGeometry x="150" y="420" width="100" height="100" as="geometry" />
        </mxCell>
        <mxCell id="kvWm2Jh_rA73hZnN-WSW-5" style="edgeStyle=orthogonalEdgeStyle;rounded=0;orthogonalLoop=1;jettySize=auto;html=1;entryX=0;entryY=0.5;entryDx=0;entryDy=0;" edge="1" parent="1" source="fPaXjcl1kV30KWy46vOE-6" target="fPaXjcl1kV30KWy46vOE-21">
          <mxGeometry relative="1" as="geometry" />
        </mxCell>
        <mxCell id="fPaXjcl1kV30KWy46vOE-6" value="Run BLASTp for each database" style="rounded=1;whiteSpace=wrap;html=1;absoluteArcSize=1;arcSize=14;strokeWidth=2;fillColor=#dae8fc;strokeColor=#6c8ebf;" parent="1" vertex="1">
          <mxGeometry x="400" y="215" width="100" height="100" as="geometry" />
        </mxCell>
        <mxCell id="fPaXjcl1kV30KWy46vOE-11" style="edgeStyle=orthogonalEdgeStyle;rounded=0;orthogonalLoop=1;jettySize=auto;html=1;" parent="1" source="fPaXjcl1kV30KWy46vOE-8" target="fPaXjcl1kV30KWy46vOE-9" edge="1">
          <mxGeometry relative="1" as="geometry" />
        </mxCell>
        <mxCell id="fPaXjcl1kV30KWy46vOE-8" value="Schema" style="strokeWidth=2;html=1;shape=mxgraph.flowchart.multi-document;whiteSpace=wrap;fillColor=#fff2cc;strokeColor=#d6b656;" parent="1" vertex="1">
          <mxGeometry x="25" y="10" width="88" height="60" as="geometry" />
        </mxCell>
        <mxCell id="fPaXjcl1kV30KWy46vOE-39" style="edgeStyle=orthogonalEdgeStyle;rounded=0;orthogonalLoop=1;jettySize=auto;html=1;" parent="1" source="fPaXjcl1kV30KWy46vOE-9" target="fPaXjcl1kV30KWy46vOE-38" edge="1">
          <mxGeometry relative="1" as="geometry" />
        </mxCell>
        <mxCell id="fPaXjcl1kV30KWy46vOE-9" value="Translating Schema loci" style="rounded=1;whiteSpace=wrap;html=1;absoluteArcSize=1;arcSize=14;strokeWidth=2;fillColor=#dae8fc;strokeColor=#6c8ebf;" parent="1" vertex="1">
          <mxGeometry x="20" y="100" width="100" height="100" as="geometry" />
        </mxCell>
        <mxCell id="kvWm2Jh_rA73hZnN-WSW-2" style="edgeStyle=orthogonalEdgeStyle;rounded=0;orthogonalLoop=1;jettySize=auto;html=1;entryX=0;entryY=0.5;entryDx=0;entryDy=0;" edge="1" parent="1" source="fPaXjcl1kV30KWy46vOE-13" target="fPaXjcl1kV30KWy46vOE-6">
          <mxGeometry relative="1" as="geometry" />
        </mxCell>
        <mxCell id="fPaXjcl1kV30KWy46vOE-13" value="reps_&lt;div&gt;translations&lt;/div&gt;" style="strokeWidth=2;html=1;shape=mxgraph.flowchart.multi-document;whiteSpace=wrap;fillColor=#f8cecc;strokeColor=#b85450;" parent="1" vertex="1">
          <mxGeometry x="26" y="235" width="88" height="60" as="geometry" />
        </mxCell>
        <mxCell id="fPaXjcl1kV30KWy46vOE-14" style="edgeStyle=orthogonalEdgeStyle;rounded=0;orthogonalLoop=1;jettySize=auto;html=1;entryX=0.5;entryY=0;entryDx=0;entryDy=0;entryPerimeter=0;" parent="1" source="fPaXjcl1kV30KWy46vOE-9" target="fPaXjcl1kV30KWy46vOE-13" edge="1">
          <mxGeometry relative="1" as="geometry" />
        </mxCell>
        <mxCell id="kvWm2Jh_rA73hZnN-WSW-20" style="edgeStyle=orthogonalEdgeStyle;rounded=0;orthogonalLoop=1;jettySize=auto;html=1;" edge="1" parent="1" source="fPaXjcl1kV30KWy46vOE-21" target="fPaXjcl1kV30KWy46vOE-41">
          <mxGeometry relative="1" as="geometry" />
        </mxCell>
        <mxCell id="fPaXjcl1kV30KWy46vOE-21" value="Extracting best annotation for each input files and overall and write results" style="rounded=1;whiteSpace=wrap;html=1;absoluteArcSize=1;arcSize=14;strokeWidth=2;fillColor=#dae8fc;strokeColor=#6c8ebf;" parent="1" vertex="1">
          <mxGeometry x="533" y="215" width="100" height="100" as="geometry" />
        </mxCell>
        <mxCell id="fPaXjcl1kV30KWy46vOE-23" value="&lt;span style=&quot;font-size: 10px;&quot;&gt;best_annotations_&lt;/span&gt;&lt;div&gt;&lt;span style=&quot;font-size: 10px;&quot;&gt;per_proteome_file&lt;/span&gt;&lt;/div&gt;" style="strokeWidth=2;html=1;shape=mxgraph.flowchart.multi-document;whiteSpace=wrap;fillColor=#d5e8d4;strokeColor=#82b366;" parent="1" vertex="1">
          <mxGeometry x="412" y="110" width="88" height="60" as="geometry" />
        </mxCell>
        <mxCell id="fPaXjcl1kV30KWy46vOE-28" value="best_proteomes_&lt;div&gt;annotations_swiss_&lt;/div&gt;&lt;div&gt;prot.tsv&lt;/div&gt;" style="strokeWidth=2;html=1;shape=mxgraph.flowchart.document2;whiteSpace=wrap;size=0.25;fillColor=#d5e8d4;strokeColor=#82b366;" parent="1" vertex="1">
          <mxGeometry x="675" y="110" width="100" height="60" as="geometry" />
        </mxCell>
        <mxCell id="fPaXjcl1kV30KWy46vOE-33" value="Create BLASTp database for swiss-prot and&amp;nbsp;TrEMBL" style="rounded=1;whiteSpace=wrap;html=1;absoluteArcSize=1;arcSize=14;strokeWidth=2;fillColor=#dae8fc;strokeColor=#6c8ebf;" parent="1" vertex="1">
          <mxGeometry x="280" y="420" width="100" height="100" as="geometry" />
        </mxCell>
        <mxCell id="fPaXjcl1kV30KWy46vOE-47" style="edgeStyle=orthogonalEdgeStyle;rounded=0;orthogonalLoop=1;jettySize=auto;html=1;" parent="1" source="fPaXjcl1kV30KWy46vOE-38" target="fPaXjcl1kV30KWy46vOE-46" edge="1">
          <mxGeometry relative="1" as="geometry" />
        </mxCell>
        <mxCell id="kvWm2Jh_rA73hZnN-WSW-3" style="edgeStyle=orthogonalEdgeStyle;rounded=0;orthogonalLoop=1;jettySize=auto;html=1;entryX=0;entryY=0.5;entryDx=0;entryDy=0;" edge="1" parent="1" source="fPaXjcl1kV30KWy46vOE-38" target="fPaXjcl1kV30KWy46vOE-6">
          <mxGeometry relative="1" as="geometry">
            <Array as="points">
              <mxPoint x="330" y="150" />
              <mxPoint x="330" y="265" />
            </Array>
          </mxGeometry>
        </mxCell>
        <mxCell id="fPaXjcl1kV30KWy46vOE-38" value="Calculate self-score" style="rounded=1;whiteSpace=wrap;html=1;absoluteArcSize=1;arcSize=14;strokeWidth=2;fillColor=#dae8fc;strokeColor=#6c8ebf;" parent="1" vertex="1">
          <mxGeometry x="153" y="100" width="100" height="100" as="geometry" />
        </mxCell>
        <mxCell id="fPaXjcl1kV30KWy46vOE-41" value="best_proteomes_&lt;div&gt;annotations_&lt;/div&gt;&lt;div&gt;trEMBL.tsv&lt;/div&gt;" style="strokeWidth=2;html=1;shape=mxgraph.flowchart.document2;whiteSpace=wrap;size=0.25;fillColor=#d5e8d4;strokeColor=#82b366;" parent="1" vertex="1">
          <mxGeometry x="533" y="110" width="100" height="60" as="geometry" />
        </mxCell>
        <mxCell id="fPaXjcl1kV30KWy46vOE-46" value="self_score_&lt;div&gt;folder&lt;/div&gt;" style="strokeWidth=2;html=1;shape=mxgraph.flowchart.multi-document;whiteSpace=wrap;fillColor=#f8cecc;strokeColor=#b85450;" parent="1" vertex="1">
          <mxGeometry x="159" y="10" width="88" height="60" as="geometry" />
        </mxCell>
        <mxCell id="fPaXjcl1kV30KWy46vOE-48" value="blastp_results" style="strokeWidth=2;html=1;shape=mxgraph.flowchart.multi-document;whiteSpace=wrap;fillColor=#f8cecc;strokeColor=#b85450;" parent="1" vertex="1">
          <mxGeometry x="406" y="365" width="88" height="60" as="geometry" />
        </mxCell>
        <mxCell id="kvWm2Jh_rA73hZnN-WSW-4" style="edgeStyle=orthogonalEdgeStyle;rounded=0;orthogonalLoop=1;jettySize=auto;html=1;entryX=0;entryY=0.5;entryDx=0;entryDy=0;" edge="1" parent="1" source="fPaXjcl1kV30KWy46vOE-50" target="fPaXjcl1kV30KWy46vOE-6">
          <mxGeometry relative="1" as="geometry">
            <Array as="points">
              <mxPoint x="330" y="265" />
            </Array>
          </mxGeometry>
        </mxCell>
        <mxCell id="fPaXjcl1kV30KWy46vOE-50" value="blast_db" style="strokeWidth=2;html=1;shape=mxgraph.flowchart.multi-document;whiteSpace=wrap;fillColor=#f8cecc;strokeColor=#b85450;" parent="1" vertex="1">
          <mxGeometry x="286" y="330" width="88" height="60" as="geometry" />
        </mxCell>
        <mxCell id="kvWm2Jh_rA73hZnN-WSW-1" style="edgeStyle=orthogonalEdgeStyle;rounded=0;orthogonalLoop=1;jettySize=auto;html=1;entryX=0.5;entryY=0.88;entryDx=0;entryDy=0;entryPerimeter=0;" edge="1" parent="1" source="fPaXjcl1kV30KWy46vOE-33" target="fPaXjcl1kV30KWy46vOE-50">
          <mxGeometry relative="1" as="geometry" />
        </mxCell>
        <mxCell id="kvWm2Jh_rA73hZnN-WSW-11" value="Processes" style="rounded=0;whiteSpace=wrap;html=1;fillColor=#dae8fc;strokeColor=#6c8ebf;" vertex="1" parent="1">
          <mxGeometry x="720" y="410" width="120" height="60" as="geometry" />
        </mxCell>
        <mxCell id="kvWm2Jh_rA73hZnN-WSW-12" value="Temporary files" style="rounded=0;whiteSpace=wrap;html=1;fillColor=#f8cecc;strokeColor=#b85450;" vertex="1" parent="1">
          <mxGeometry x="590" y="480" width="120" height="60" as="geometry" />
        </mxCell>
        <mxCell id="kvWm2Jh_rA73hZnN-WSW-13" value="Input files" style="rounded=0;whiteSpace=wrap;html=1;fillColor=#e1d5e7;strokeColor=#9673a6;" vertex="1" parent="1">
          <mxGeometry x="590" y="410" width="120" height="60" as="geometry" />
        </mxCell>
        <mxCell id="kvWm2Jh_rA73hZnN-WSW-14" value="Output files" style="rounded=0;whiteSpace=wrap;html=1;fillColor=#d5e8d4;strokeColor=#82b366;" vertex="1" parent="1">
          <mxGeometry x="720" y="480" width="120" height="60" as="geometry" />
        </mxCell>
        <mxCell id="kvWm2Jh_rA73hZnN-WSW-15" value="Color description:" style="text;html=1;align=center;verticalAlign=middle;resizable=0;points=[];autosize=1;strokeColor=none;fillColor=none;" vertex="1" parent="1">
          <mxGeometry x="490" y="380" width="110" height="30" as="geometry" />
        </mxCell>
        <mxCell id="kvWm2Jh_rA73hZnN-WSW-16" style="edgeStyle=orthogonalEdgeStyle;rounded=0;orthogonalLoop=1;jettySize=auto;html=1;entryX=0.5;entryY=0;entryDx=0;entryDy=0;entryPerimeter=0;" edge="1" parent="1" source="fPaXjcl1kV30KWy46vOE-6" target="fPaXjcl1kV30KWy46vOE-48">
          <mxGeometry relative="1" as="geometry" />
        </mxCell>
        <mxCell id="kvWm2Jh_rA73hZnN-WSW-21" style="edgeStyle=orthogonalEdgeStyle;rounded=0;orthogonalLoop=1;jettySize=auto;html=1;entryX=0.57;entryY=0.867;entryDx=0;entryDy=0;entryPerimeter=0;" edge="1" parent="1" source="fPaXjcl1kV30KWy46vOE-21" target="fPaXjcl1kV30KWy46vOE-28">
          <mxGeometry relative="1" as="geometry">
            <Array as="points">
              <mxPoint x="583" y="200" />
              <mxPoint x="732" y="200" />
            </Array>
          </mxGeometry>
        </mxCell>
        <mxCell id="kvWm2Jh_rA73hZnN-WSW-22" style="edgeStyle=orthogonalEdgeStyle;rounded=0;orthogonalLoop=1;jettySize=auto;html=1;entryX=0.5;entryY=0.88;entryDx=0;entryDy=0;entryPerimeter=0;" edge="1" parent="1" source="fPaXjcl1kV30KWy46vOE-21" target="fPaXjcl1kV30KWy46vOE-23">
          <mxGeometry relative="1" as="geometry">
            <Array as="points">
              <mxPoint x="583" y="200" />
              <mxPoint x="456" y="200" />
            </Array>
          </mxGeometry>
        </mxCell>
        <mxCell id="kvWm2Jh_rA73hZnN-WSW-25" style="edgeStyle=orthogonalEdgeStyle;rounded=0;orthogonalLoop=1;jettySize=auto;html=1;entryX=0;entryY=0.5;entryDx=0;entryDy=0;" edge="1" parent="1" source="kvWm2Jh_rA73hZnN-WSW-23" target="fPaXjcl1kV30KWy46vOE-33">
          <mxGeometry relative="1" as="geometry">
            <Array as="points">
              <mxPoint x="260" y="360" />
              <mxPoint x="260" y="470" />
            </Array>
          </mxGeometry>
        </mxCell>
        <mxCell id="kvWm2Jh_rA73hZnN-WSW-23" value="database_&lt;div&gt;prots.fasta&lt;/div&gt;" style="strokeWidth=2;html=1;shape=mxgraph.flowchart.multi-document;whiteSpace=wrap;fillColor=#f8cecc;strokeColor=#b85450;" vertex="1" parent="1">
          <mxGeometry x="156" y="330" width="88" height="60" as="geometry" />
        </mxCell>
        <mxCell id="kvWm2Jh_rA73hZnN-WSW-26" style="edgeStyle=orthogonalEdgeStyle;rounded=0;orthogonalLoop=1;jettySize=auto;html=1;entryX=0.5;entryY=0.88;entryDx=0;entryDy=0;entryPerimeter=0;" edge="1" parent="1" source="fPaXjcl1kV30KWy46vOE-4" target="kvWm2Jh_rA73hZnN-WSW-23">
          <mxGeometry relative="1" as="geometry" />
        </mxCell>
      </root>
    </mxGraphModel>
  </diagram>
</mxfile>
